<?xml version="1.0" encoding="utf-8"?>
<svg viewBox="0 0 500 220" xmlns="http://www.w3.org/2000/svg">
  <path d="M 402.024 176.891 C 396.864 180.758 391.271 184.422 385.288 187.854 C 359.656 202.554 326.751 213.11 289.964 217.599 C 342.767 213.864 389.988 202.852 426.162 186.974 C 433.41 183.791 440.208 180.419 446.514 176.872 L 402.024 176.891 Z M 114.713 187.854 C 108.795 184.46 103.259 180.84 98.148 177.019 L 53.782 177.037 C 60.004 180.523 66.703 183.841 73.838 186.974 C 110.013 202.852 157.233 213.864 210.037 217.599 C 173.25 213.11 140.343 202.554 114.713 187.854 Z M 52.387 176.202 L 97.042 176.183 C 87.253 168.719 79.072 160.507 72.806 151.726 L 74.05 151.726 C 80.42 160.514 88.749 168.722 98.733 176.182 L 175.464 176.149 C 170.7 168.694 166.722 160.492 163.671 151.726 L 164.788 151.726 C 167.868 160.503 171.893 168.701 176.714 176.149 L 323.326 176.087 C 328.131 168.657 332.142 160.48 335.213 151.726 L 336.329 151.726 C 333.288 160.468 329.323 168.646 324.577 176.086 L 401.439 176.055 C 411.348 168.629 419.616 160.465 425.95 151.726 L 427.195 151.726 C 420.963 160.457 412.841 168.624 403.129 176.054 L 447.938 176.035 L 447.938 176.063 C 460.604 168.8 471.224 160.824 479.451 152.286 C 491.883 139.385 498.768 125.323 498.915 110.487 L 462.245 110.489 L 462.245 109.487 L 498.914 109.485 C 498.759 94.659 491.876 80.607 479.451 67.714 C 471.127 59.076 460.358 51.016 447.497 43.684 L 447.497 43.721 L 402.857 43.739 C 412.689 51.224 420.906 59.463 427.197 68.274 L 425.951 68.274 C 419.558 59.455 411.196 51.22 401.164 43.739 L 324.485 43.771 C 329.272 51.249 333.269 59.477 336.33 68.274 L 335.213 68.274 C 332.122 59.465 328.079 51.24 323.234 43.771 L 176.727 43.829 C 171.9 51.283 167.871 59.489 164.788 68.274 L 163.671 68.274 C 166.724 59.501 170.707 51.293 175.477 43.829 L 98.676 43.86 C 88.716 51.308 80.408 59.503 74.05 68.274 L 72.805 68.274 C 79.06 59.511 87.222 51.312 96.985 43.86 L 52.167 43.878 C 39.455 51.157 28.799 59.152 20.549 67.714 C 8.116 80.615 1.233 94.677 1.086 109.512 L 37.757 109.51 L 37.757 110.512 L 1.087 110.514 C 1.241 125.34 8.123 139.393 20.549 152.286 C 28.848 160.898 39.578 168.936 52.387 176.248 L 52.387 176.202 Z M 98.044 43.06 C 103.184 39.209 108.756 35.563 114.713 32.146 C 140.343 17.446 173.25 6.89 210.037 2.401 C 157.233 6.136 110.013 17.148 73.838 33.026 C 66.624 36.193 59.858 39.548 53.578 43.077 L 98.044 43.06 Z M 385.288 32.146 C 391.184 35.527 396.701 39.133 401.797 42.94 L 446.146 42.923 C 439.944 39.451 433.27 36.147 426.162 33.026 C 389.988 17.148 342.767 6.136 289.964 2.401 C 326.751 6.89 359.656 17.446 385.288 32.146 Z M 324.038 176.923 C 321.558 180.734 318.873 184.346 316.003 187.737 C 302.364 203.842 284.415 215.018 264.414 218.689 C 311.306 216.682 353.412 204.956 384.722 187 C 390.274 183.815 395.481 180.44 400.31 176.892 L 324.038 176.923 Z M 183.999 187.737 C 181.143 184.365 178.472 180.774 176.003 176.985 L 99.861 177.018 C 104.643 180.52 109.792 183.853 115.279 187 C 146.588 204.956 188.694 216.682 235.587 218.689 C 215.585 215.018 197.638 203.842 183.999 187.737 Z M 175.993 43.028 C 178.464 39.235 181.14 35.639 183.999 32.263 C 197.638 16.158 215.585 4.982 235.587 1.31 C 188.694 3.318 146.588 15.043 115.279 33 C 109.753 36.17 104.568 39.528 99.757 43.059 L 175.993 43.028 Z M 316.003 32.263 C 318.848 35.621 321.509 39.199 323.969 42.97 L 400.083 42.94 C 395.316 39.454 390.186 36.134 384.722 33 C 353.412 15.043 311.306 3.318 264.414 1.31 C 284.415 4.982 302.364 16.158 316.003 32.263 Z M 315.155 32.884 C 298.435 13.142 275.477 1.003 250.001 1.003 C 224.522 1.003 201.564 13.142 184.845 32.884 C 182.141 36.076 179.605 39.465 177.251 43.028 L 322.712 42.971 C 320.369 39.428 317.845 36.059 315.155 32.884 Z M 184.845 187.116 C 201.564 206.857 224.522 218.997 250.001 218.997 C 275.477 218.997 298.435 206.857 315.155 187.116 C 317.873 183.908 320.419 180.505 322.78 176.924 L 177.261 176.985 C 179.611 180.544 182.145 183.927 184.845 187.116 Z M 499.996 110 C 499.996 125.221 492.932 139.799 480.253 152.957 C 467.59 166.1 449.234 177.955 426.622 187.88 C 381.423 207.72 318.943 220 250.001 220 C 181.059 220 118.578 207.72 73.379 187.88 C 50.766 177.955 32.41 166.1 19.747 152.957 C 7.069 139.799 0.005 125.221 0.005 110 C 0.005 94.778 7.069 80.2 19.747 67.043 C 32.41 53.9 50.766 42.045 73.379 32.12 C 118.578 12.279 181.059 0 250.001 0 C 318.943 0 381.423 12.279 426.622 32.12 C 449.234 42.045 467.59 53.9 480.253 67.043 C 492.932 80.2 499.996 94.778 499.996 110 Z" style="paint-order: fill; vector-effect: non-scaling-stroke; stroke-linejoin: round; stroke-linecap: round; stroke: rgb(0, 0, 0); stroke-width: 3px;">
    <title>Globe</title>
  </path>
  <path d="M 55.007 134.128 L 55.007 85.873 C 55.007 85.151 55.473 84.717 56.249 84.717 L 65.954 84.717 C 66.731 84.717 67.12 85.151 67.12 85.873 L 67.12 125.387 L 117.901 125.387 C 118.677 125.387 119.143 125.82 119.143 126.543 L 119.143 134.128 C 119.143 134.85 118.677 135.284 117.901 135.284 L 56.249 135.284 C 55.473 135.284 55.007 134.85 55.007 134.128 Z M 124.379 122.064 L 124.379 85.873 C 124.379 85.151 124.844 84.717 125.621 84.717 L 135.327 84.717 C 136.103 84.717 136.493 85.151 136.493 85.873 L 136.493 121.27 C 136.493 124.375 138.045 125.387 140.997 125.387 L 177.877 125.387 C 180.829 125.387 182.382 124.375 182.382 121.27 L 182.382 85.873 C 182.382 85.151 182.769 84.717 183.546 84.717 L 193.251 84.717 C 194.028 84.717 194.495 85.151 194.495 85.873 L 194.495 122.064 C 194.495 130.3 190.301 135.284 180.674 135.284 L 138.201 135.284 C 128.572 135.284 124.379 130.3 124.379 122.064 Z M 205.08 134.128 L 205.08 85.873 C 205.08 85.151 205.547 84.717 206.324 84.717 L 220.377 84.717 C 221.154 84.717 221.62 85.079 222.086 85.801 L 246.078 122.281 L 247.165 122.281 L 271.157 85.801 C 271.623 85.079 272.089 84.717 272.866 84.717 L 286.997 84.717 C 287.774 84.717 288.163 85.151 288.163 85.873 L 288.163 134.128 C 288.163 134.85 287.774 135.284 286.997 135.284 L 277.292 135.284 C 276.516 135.284 276.05 134.85 276.05 134.128 L 276.05 99.743 L 275.195 99.743 L 252.677 134.128 C 252.213 134.85 251.67 135.284 250.815 135.284 L 242.428 135.284 C 241.653 135.284 241.109 134.85 240.643 134.128 L 218.048 99.743 L 217.193 99.743 L 217.193 134.128 C 217.193 134.85 216.807 135.284 216.029 135.284 L 206.324 135.284 C 205.547 135.284 205.08 134.85 205.08 134.128 Z M 367.067 97.504 L 367.067 122.497 C 367.067 130.589 361.864 135.573 354.023 135.573 L 309.843 135.573 C 302.155 135.573 296.875 130.589 296.875 122.497 L 296.875 97.504 C 296.875 89.413 302.155 84.428 309.843 84.428 L 354.1 84.428 C 361.788 84.428 367.067 89.413 367.067 97.504 Z M 332.127 126.543 C 338.804 126.543 344.395 121.27 344.395 115.058 C 344.395 112.673 343.618 110.506 342.298 108.628 L 333.912 94.759 C 332.748 92.736 331.427 92.736 330.263 94.759 L 321.876 108.628 C 320.557 110.506 319.858 112.673 319.858 115.058 C 319.858 121.27 325.295 126.543 332.127 126.543 Z M 376.327 134.128 L 376.327 85.873 C 376.327 85.151 376.792 84.717 377.569 84.717 L 388.905 84.717 C 389.604 84.717 389.914 85.006 390.614 85.584 L 431.999 121.992 L 433.008 121.992 L 433.008 85.873 C 433.008 85.151 433.475 84.717 434.25 84.717 L 443.956 84.717 C 444.733 84.717 445.199 85.151 445.199 85.873 L 445.199 134.128 C 445.199 134.85 444.733 135.284 443.956 135.284 L 432.62 135.284 C 431.845 135.284 431.534 134.995 430.834 134.417 L 389.527 98.01 L 388.439 98.01 L 388.439 134.128 C 388.439 134.85 388.051 135.284 387.274 135.284 L 377.569 135.284 C 376.792 135.284 376.327 134.85 376.327 134.128 Z" style="white-space: pre; stroke-width: 0px; stroke: rgb(0, 0, 0);">
    <title>Logotype</title>
  </path>
</svg>